# This file uses centimeters as units for non-parametric coordinates.

mtllib Triangulo.mtl
g default
v 0.500000 1.000000 0.866025
v 0.866025 1.000000 0.500000
v 0.000000 1.000000 0.000000
v 0.500000 1.169801 0.866025
v 0.866025 1.169801 0.500000
v 0.000000 1.169801 0.000000
vt 0.635316 0.765625
vt 0.578125 0.708434
vt 0.500000 0.837500
vt 0.578125 0.708434
vt 0.635316 0.765625
vt 0.500000 0.837500
vt 0.578125 0.708434
vt 0.635316 0.765625
vt 0.500000 0.837500
vn 0.000000 1.000000 0.000000
vn 0.000000 1.000000 0.000000
vn 0.000000 1.000000 0.000000
vn 0.000000 -1.000000 0.000000
vn 0.000000 -1.000000 0.000000
vn 0.000000 -1.000000 0.000000
vn 0.707107 0.000000 0.707107
vn 0.707107 0.000000 0.707107
vn 0.707107 0.000000 0.707107
vn 0.707107 0.000000 0.707107
vn 0.500000 0.000000 -0.866025
vn 0.500000 0.000000 -0.866025
vn 0.500000 0.000000 -0.866025
vn 0.500000 0.000000 -0.866025
vn -0.866025 0.000000 0.500000
vn -0.866025 0.000000 0.500000
vn -0.866025 0.000000 0.500000
vn -0.866025 0.000000 0.500000
s off
g pCylinder1
usemtl initialShadingGroup
f 4/7/1 5/8/2 6/9/3
f 1/4/4 3/6/5 2/5/6
f 1/2/7 2/1/8 5/8/9 4/7/10
f 2/1/11 3/3/12 6/9/13 5/8/14
f 3/3/15 1/2/16 4/7/17 6/9/18
